<svg xmlns="http://www.w3.org/2000/svg" xmlns:xlink="http://www.w3.org/1999/xlink" version="1.1" x="0px" y="0px" viewBox="0 0 100 125" enable-background="new 0 0 100 100" xml:space="preserve"><g><path fill="#000000" stroke="#231F20" stroke-width="2" stroke-miterlimit="10" d="M49.6,51.3"/></g><g><circle fill="#000000" cx="49.6" cy="63.8" r="2"/></g><g><g><path fill="#000000" d="M35.4,55h-2c0-3,2.6-4.8,4.6-5v0l0.6-0.1c2.8,0.2,5.2,2.1,5.2,5.1h-2c0-2-1.4-3.1-3.2-3.2    C36.8,51.9,35.4,53,35.4,55z"/></g><g><path fill="#000000" d="M57.4,55h-2c0-3,2.6-4.8,4.6-5v0l0.6-0.1c2.8,0.2,5.2,2.1,5.2,5.1h-2c0-2-1.4-3.1-3.2-3.2    C58.8,51.9,57.4,53,57.4,55z"/></g></g><g><path fill="#000000" d="M80.8,43.5l-0.5-0.2c-0.9-0.3-1.8-0.3-2.6-0.3c-0.5,0-0.9,0-1.4,0c-0.5,0-1.1,0-1.6,0H71v-4h-9v-9h-5v9H42   v-9h-5v9h-8v4h-3.2c-5.9,0-9.8,0.2-9.8,2.6v3c0,2.4,5.4,4.4,9.8,4.4H29v27h42V53h3.6c4.5,0,8.4-2.1,8.4-4.4v-3   C83,44.2,81.9,43.8,80.8,43.5z M29,51h-3.2c-4,0-7.6-1.7-7.8-2.4v-2.9c0.9-0.7,5.9-0.7,7.8-0.7H29V51z M59,32h1v7h-1V32z M39,32h1   v7h-1V32z M69,78H31V41h38V78z M81,48.6c0,0.6-2.3,2.4-6.4,2.4H71v-6h3.6c0.6,0,1.2,0,1.7,0c0.5,0,0.9,0,1.3,0   c0.9,0,1.5,0.1,1.9,0.2l0.5,0.2c0.3,0.1,0.7,0.2,0.9,0.3V48.6z"/></g><g><g><path fill="#000000" d="M39.6,29.5c-2.8,0-5-2.2-5-5s2.2-5,5-5s5,2.2,5,5S42.4,29.5,39.6,29.5z M39.6,21.5c-1.7,0-3,1.3-3,3    s1.3,3,3,3s3-1.3,3-3S41.3,21.5,39.6,21.5z"/></g><g><path fill="#000000" d="M59.6,29.5c-2.8,0-5-2.2-5-5s2.2-5,5-5s5,2.2,5,5S62.4,29.5,59.6,29.5z M59.6,21.5c-1.7,0-3,1.3-3,3    s1.3,3,3,3s3-1.3,3-3S61.3,21.5,59.6,21.5z"/></g></g><text x="0" y="115" fill="#000000" font-size="5px" font-weight="bold" font-family="'Helvetica Neue', Helvetica, Arial-Unicode, Arial, Sans-serif">Created by Sumana Chamrunworakiat</text><text x="0" y="120" fill="#000000" font-size="5px" font-weight="bold" font-family="'Helvetica Neue', Helvetica, Arial-Unicode, Arial, Sans-serif">from the Noun Project</text></svg>